<svg width="20" height="20"><path d="M17.61 7.96v4.64c-.06 1.48-2.17 1.48-2.23 0V7.96c.06-1.48 2.17-1.48 2.23 0zM4.62 7.96v4.64c-.06 1.48-2.17 1.48-2.23 0V7.96c.06-1.48 2.17-1.48 2.23 0zM12.78 2.85c-.11-.07-.23-.13-.34-.19.13-.23.65-1.17.79-1.42.07-.12-.05-.27-.18-.23-.04.01-.07.04-.09.08l-.79 1.43c-1.32-.6-2.98-.6-4.3 0-.13-.23-.65-1.18-.79-1.43-.04-.07-.14-.1-.21-.06-.08.04-.1.14-.06.21l.79 1.42c-1.49.77-2.53 2.28-2.53 3.99H15c.01-1.55-.87-2.98-2.19-3.8zM7.71 4.83c-.23 0-.41-.19-.41-.41.01-.27.21-.41.41-.41s.4.14.42.41c0 .22-.18.42-.41.41zm4.58 0c-.23 0-.42-.19-.41-.41.01-.28.21-.41.41-.41s.4.14.41.41c0 .23-.19.41-.41.41zM14.97 7.03v7.2c0 .66-.54 1.2-1.2 1.2h-.8v2.46c-.06 1.48-2.16 1.48-2.23 0v-2.46H9.26v2.46c0 .61-.5 1.11-1.11 1.11s-1.11-.5-1.11-1.11v-2.46h-.8c-.66 0-1.2-.54-1.2-1.2v-7.2h9.93z"/></svg>