<svg xmlns="http://www.w3.org/2000/svg" viewBox="0 0 20 20" style="enable-background:new 0 0 20 20" xml:space="preserve"><path d="M17.5 16h-15v-.5c0-.7.4-1.6.8-2.4.1-.3.3-.6.4-.8.5-1.1.6-2 1.1-5.4.2-2.3.5-4 2.2-5.2C7.9 1 9.3 1 9.8 1h.2s1.8-.1 3 .8C14.6 3 15 4.6 15.3 7c.5 3.3.6 4.2 1.1 5.4.1.2.2.5.4.8.4.8.8 1.7.8 2.4l-.1.4zM3.6 15h12.7c-.1-.4-.4-.9-.6-1.4-.2-.3-.3-.6-.4-.8-.5-1.3-.6-2.3-1.1-5.6-.4-2.6-.7-3.6-1.9-4.5-.7-.6-1.9-.7-2.3-.7h-.2c-.3 0-1.5 0-2.2.6-1.2.9-1.5 1.9-1.9 4.5-.5 3.2-.6 4.3-1.1 5.6-.1.3-.2.6-.4.9-.2.4-.4.9-.6 1.4z"/><path d="M9.9 18.9c-1.7 0-3-1.3-3-2.9h1c0 1.1.9 1.9 2 1.9s2-.8 2-1.9h1c0 1.7-1.3 2.9-3 2.9z"/></svg>