<svg xmlns="http://www.w3.org/2000/svg" viewBox="0 0 20 20" style="enable-background:new 0 0 20 20" xml:space="preserve"><path d="M6.5 15.2H3.8c-2.1 0-3.8-1.7-3.8-3.8 0-1.7 1.2-3.2 2.8-3.6.3-3 2.8-5.3 5.9-5.3 2.5 0 4.7 1.6 5.6 3.9.4-.1.8-.2 1.3-.2 2.5 0 4.5 2 4.5 4.5s-2 4.5-4.5 4.5h-3V14h3c1.9 0 3.5-1.5 3.5-3.4s-1.5-3.4-3.5-3.4c-.5 0-.9.1-1.4.3l-.6.3-.2-.6c-.6-2.2-2.5-3.7-4.7-3.7-2.6 0-4.8 2-4.8 4.7v.5h-.5C2.1 8.9 1 10.1 1 11.4c0 1.5 1.2 2.7 2.7 2.7h2.8v1.1z"/><path d="m11.4 12.1-1.9-1.9-1.9 1.9-.7-.7 2.6-2.6 2.6 2.6z"/><path d="M9 9.5h1V18H9z"/></svg>