<svg xmlns="http://www.w3.org/2000/svg" viewBox="0 0 20 20" style="enable-background:new 0 0 20 20" xml:space="preserve"><path d="M10 13.8c-2.1 0-3.8-1.7-3.8-3.8 0-2.1 1.7-3.8 3.8-3.8 2.1 0 3.8 1.7 3.8 3.8 0 2.1-1.7 3.8-3.8 3.8zm0-6.6c-1.5 0-2.8 1.3-2.8 2.8 0 1.5 1.3 2.8 2.8 2.8 1.5 0 2.8-1.3 2.8-2.8 0-1.5-1.3-2.8-2.8-2.8z"/><path d="M12.8 19H7.1l.1-.6c.2-.9-.1-1.8-.8-2.2-.7-.4-1.6-.2-2.3.4l-.5.4-2.9-5 .5-.2c.9-.4 1.5-1.1 1.5-1.8 0-.8-.6-1.5-1.5-1.8L.8 8l2.9-5 .5.4c.6.6 1.6.8 2.2.4.7-.4 1-1.3.8-2.2L7.1 1h5.7l-.1.6c-.2 1 .1 1.8.8 2.2.7.4 1.6.2 2.3-.4l.6-.4 2.8 5-.6.2c-.9.3-1.5 1-1.5 1.8s.6 1.5 1.5 1.8l.6.2-2.9 5-.5-.4c-.7-.6-1.7-.8-2.3-.4-.7.4-1 1.2-.8 2.2l.1.6zm-4.5-1h3.4c0-1.1.5-2.1 1.4-2.6.9-.5 2-.4 3 .2l1.7-3c-1-.6-1.6-1.5-1.6-2.5s.6-2 1.6-2.5l-1.7-3c-1 .6-2.1.6-3 .1-.9-.5-1.4-1.5-1.4-2.7H8.3c0 1.1-.5 2.1-1.3 2.7-.9.5-2 .4-3-.2l-1.7 3C3.2 8 3.8 9 3.8 10s-.6 2-1.6 2.5l1.7 3c1-.6 2.1-.7 3-.1.9.5 1.4 1.5 1.4 2.6z"/></svg>