<svg xmlns="http://www.w3.org/2000/svg" viewBox="0 0 20 20" style="enable-background:new 0 0 20 20" xml:space="preserve"><path d="M10 8.3c-4.6 0-8-1.6-8-3.6C2 2.6 5.4 1 10 1s8 1.6 8 3.6c0 2.1-3.4 3.7-8 3.7zM10 2C5.9 2 3 3.4 3 4.6s2.9 2.6 7 2.6 7-1.4 7-2.6S14.1 2 10 2z"/><path d="M10 11.8c-4.6 0-8-1.6-8-3.6h1c0 1.2 2.9 2.6 7 2.6s7-1.4 7-2.6h1c0 2-3.4 3.6-8 3.6z"/><path d="M10 14.9c-4.6 0-8-1.6-8-3.6h1c0 1.2 2.9 2.6 7 2.6s7-1.4 7-2.6h1c0 2-3.4 3.6-8 3.6z"/><path d="M10 18c-4.6 0-8-1.6-8-3.6V4.6h1v9.7c0 1.2 2.9 2.6 7 2.6s7-1.4 7-2.6V4.6h1v9.7c0 2.1-3.4 3.7-8 3.7z"/></svg>