<svg xmlns="http://www.w3.org/2000/svg" viewBox="0 0 20 20" style="enable-background:new 0 0 20 20" xml:space="preserve"><path d="M1.7 9.6h-.4V8.2c.1 0 4.9.1 8.4-1 1.5-.4 2.6-1 3.8-1.8 1.3-1 2.3-2.3 2.4-2.4l1.1.9c0 .1-1.2 1.5-2.6 2.6-1.4 1-2.6 1.5-4.2 2-3.2 1-7.3 1.1-8.5 1.1zM4.5 17l-1.2-.7c.1-.1 1.8-2.9 3.7-4.4 1.7-1.2 3.9-2.1 6-2.3 3-.2 6 .4 6.1.4l-.3 1.4s-2.9-.6-5.7-.4c-1.8.2-3.8 1-5.3 2.1-1.6 1.2-3.3 3.8-3.3 3.9z"/><path d="M13.2 18.1s-.3-2.4-.9-4.3c-.6-2-1.4-4.2-1.9-5.1-.8-2.1-4-6.6-4.1-6.7l1.1-.8c.1.2 3.4 4.7 4.3 6.9.4 1 1.3 3.2 1.9 5.3.6 2 .9 4.4.9 4.5l-1.3.2z"/><path d="M10 19.7C4.7 19.7.3 15.3.3 10S4.7.3 10 .3s9.7 4.4 9.7 9.7-4.4 9.7-9.7 9.7zm0-18c-4.6 0-8.3 3.7-8.3 8.3 0 4.6 3.7 8.3 8.3 8.3 4.6 0 8.3-3.7 8.3-8.3 0-4.6-3.7-8.3-8.3-8.3z"/></svg>