<svg xmlns="http://www.w3.org/2000/svg" viewBox="0 0 20 20" style="enable-background:new 0 0 20 20" xml:space="preserve"><path d="m12.8 12.8-.7-.7c.5-.5.9-1.3.9-2.1 0-1.6-1.3-3-3-3-.8 0-1.5.4-2.1.9l-.7-.7C7.9 6.5 9 6 10 6c2.2 0 4 1.8 4 4 0 1-.5 2.1-1.2 2.8z"/><path d="M10 17.5c-4.6 0-7.6-3.7-9.9-7.2l-.2-.3.2-.3C2.4 6.2 5.4 2.5 10 2.5c4.5 0 7.5 3.5 9.8 7h.7l-.5.8c-2.4 3.5-5.4 7.2-10 7.2zM1.1 10c2.2 3.3 4.9 6.5 8.9 6.5s6.7-3.2 8.9-6.5C16.7 6.7 14 3.5 10 3.5S3.3 6.7 1.1 10z"/><path d="m2.151 2.858.707-.707 14.99 14.99-.706.708z"/></svg>