<svg xmlns="http://www.w3.org/2000/svg" viewBox="0 0 20 20" style="enable-background:new 0 0 20 20" xml:space="preserve"><path d="M17 19H3V1h14v18zM4 18h12V2H4v16z"/><path d="M14.6 11.7c-.5.3-1.4-.2-1.8-.4.5-.1 1 0 1.5.1.4.1.4.2.3.3zm-6.3 0 .4-.8c.3-.5.5-1.1.8-1.6.3.6.7 1.1 1.2 1.6l.3.1c-.9.2-1.8.4-2.7.7zm1.2-6.4c.2 0 .3.5.3 1 0 .4-.1.7-.2 1-.1-.4-.2-.8-.2-1.3 0 0 0-.7.1-.7zm-3.9 9c.3-.6.7-1.1 1.2-1.5l.2-.2c-.3.7-.8 1.3-1.4 1.7zm9.2-3.3c-.4-.2-.9-.4-1.3-.3-.5 0-1.1 0-1.6.1-.3-.1-.5-.3-.7-.5-.6-.6-1-1.3-1.3-2.1.2-.9.3-1.7.3-2.6 0-.1 0-.2-.1-.2-.1-.2-.3-.4-.5-.4h-.2c-.3 0-.5.1-.6.4-.1 1.1 0 2.1.4 3.1-.3.6-1 2.1-1 2.1-.3.6-.6 1.1-.8 1.5l-.8.4c-.7.3-1.2.9-1.5 1.6 0 .2 0 .3.2.4l.2.1c1.2.6 2.3-1.7 2.7-2.4 1.2-.4 2.4-.7 3.6-.9.9.6 1.9.9 2.9.8.1 0 .2-.1.3-.2.1-.2.2-.5.1-.8-.2.1-.2 0-.3-.1z"/></svg>