<svg xmlns="http://www.w3.org/2000/svg" viewBox="0 0 20 20" style="enable-background:new 0 0 20 20" xml:space="preserve"><path d="M5.8 5.2c-1.3 0-2.4-1.1-2.4-2.4S4.5.4 5.8.4s2.4 1.1 2.4 2.4-1.1 2.4-2.4 2.4zm0-3.6c-.7 0-1.2.5-1.2 1.2S5.1 4 5.8 4 7 3.4 7 2.8s-.6-1.2-1.2-1.2zM14.2 5.2c-1.3 0-2.4-1.1-2.4-2.4S12.9.4 14.2.4s2.4 1.1 2.4 2.4-1.1 2.4-2.4 2.4zm0-3.6c-.7 0-1.2.5-1.2 1.2S13.5 4 14.2 4s1.2-.5 1.2-1.2-.6-1.2-1.2-1.2zM10 19.2c-1.3 0-2.4-1.1-2.4-2.4s1.1-2.4 2.4-2.4c1.3 0 2.4 1.1 2.4 2.4s-1.1 2.4-2.4 2.4zm0-3.6c-.7 0-1.2.5-1.2 1.2S9.4 18 10 18c.7 0 1.2-.5 1.2-1.2s-.5-1.2-1.2-1.2z"/><path d="M10 15.6c-.7 0-.9-.3-1-1.1v-1.2c0-1.2-.9-2-1.9-2.9-1.1-1-2.3-2.1-2.3-3.8v-2h2v2c0 .8.8 1.5 1.7 2.3.5.5 1.1 1 1.6 1.6.5-.6 1-1.1 1.5-1.6.9-.8 1.6-1.5 1.6-2.4v-2h2v2c0 1.7-1.2 2.8-2.3 3.8-1 .9-1.9 1.8-1.9 2.9v2.3l-1 .1z"/></svg>