<svg xmlns="http://www.w3.org/2000/svg" viewBox="0 0 20 20" style="enable-background:new 0 0 20 20" xml:space="preserve"><path d="M7 5.6C5.6 5.6 4.4 4.4 4.4 3S5.6.4 7 .4 9.6 1.6 9.6 3 8.4 5.6 7 5.6zm0-4c-.8 0-1.4.6-1.4 1.4S6.2 4.4 7 4.4 8.4 3.8 8.4 3 7.8 1.6 7 1.6zM14 8.6c-1.4 0-2.6-1.2-2.6-2.6s1.2-2.6 2.6-2.6 2.6 1.2 2.6 2.6-1.2 2.6-2.6 2.6zm0-4c-.8 0-1.4.6-1.4 1.4s.6 1.4 1.4 1.4 1.4-.6 1.4-1.4-.6-1.4-1.4-1.4zM7 19.6c-1.4 0-2.6-1.2-2.6-2.6s1.2-2.6 2.6-2.6 2.6 1.2 2.6 2.6-1.2 2.6-2.6 2.6zm0-4c-.8 0-1.4.6-1.4 1.4s.6 1.4 1.4 1.4 1.4-.6 1.4-1.4-.6-1.4-1.4-1.4z"/><path d="M8 15H6V5h2v6.1c.9-.5 1.8-.7 2.4-.8 2-.4 2.6-.8 2.6-2.3h2c0 3.4-2.7 3.9-4.2 4.2-1.6.3-2.8.7-2.8 2.8z"/></svg>