<svg xmlns="http://www.w3.org/2000/svg" viewBox="0 0 20 20" style="enable-background:new 0 0 20 20" xml:space="preserve"><path d="M12.1 11.6c-.2 1.2-1.8 2.5-3 2.6-2.9 0 .8-4.7-.4-5.8.6-.2 1.9-.5 1.9.4 0 .8-.5 1.7-.7 2.5-1.2 3.8 2.2-.2 2.3-.1 0 0 0 .2-.1.4 0 .3.1-.2 0 0zm-.5-5.9c0 1-2.2 1.5-2.2.4s2.2-1.6 2.2-.4z"/><path d="M10 19.5C4.7 19.5.5 15.2.5 10 .5 4.7 4.8.5 10 .5c5.3 0 9.5 4.3 9.5 9.5 0 5.3-4.2 9.5-9.5 9.5zm0-18c-4.7 0-8.5 3.8-8.5 8.5s3.8 8.5 8.5 8.5 8.5-3.8 8.5-8.5-3.8-8.5-8.5-8.5z"/></svg>