<svg xmlns="http://www.w3.org/2000/svg" viewBox="0 0 20 20" style="enable-background:new 0 0 20 20" xml:space="preserve"><path d="M10 19.5C4.8 19.5.5 15.2.5 10S4.8.5 10 .5s9.5 4.3 9.5 9.5-4.3 9.5-9.5 9.5zm0-18c-4.7 0-8.5 3.8-8.5 8.5s3.8 8.5 8.5 8.5 8.5-3.8 8.5-8.5-3.8-8.5-8.5-8.5z"/><path d="M10 15.5c-3 0-5.5-2.5-5.5-5.5S7 4.5 10 4.5 15.5 7 15.5 10 13 15.5 10 15.5zm0-10c-2.5 0-4.5 2-4.5 4.5s2 4.5 4.5 4.5 4.5-2 4.5-4.5-2-4.5-4.5-4.5z"/><path d="m4.801 2.785.778-.778 2.97 2.97-.778.778zM2.022 5.594l.777-.778 2.97 2.97-.778.777zM11.521 15.093l.778-.777 2.97 2.97-.778.777zM14.301 12.285l.778-.778 2.97 2.97-.778.778zM14.316 7.7l2.972-2.969.777.779-2.972 2.968zM11.507 4.92 14.48 1.95l.778.778-2.972 2.969zM4.817 17.202l2.968-2.972.779.778-2.968 2.972zM2.009 14.422l2.968-2.972.778.778L2.787 15.2z"/></svg>