<svg xmlns="http://www.w3.org/2000/svg" viewBox="0 0 20 20" style="enable-background:new 0 0 20 20" xml:space="preserve"><path d="M6.4 16.5c-.6 0-1.1-.2-1.5-.7l-.7-.7c-.9-.9-.9-2.2 0-3.1l3-3 .8.8-3.1 3.1c-.5.5-.5 1 0 1.5l.7.7c.5.5 1 .5 1.5 0l3.1-3.1.8.8-3.1 3.1c-.4.4-1 .6-1.5.6zM12.7 10.8l-.8-.8L15 6.9c.2-.2.4-.5.4-.8s-.1-.5-.4-.7l-.7-.7c-.5-.5-1-.5-1.5 0L9.7 7.8 8.9 7 12 3.9c.9-.9 2.2-.9 3.1 0l.7.7c.4.4.7 1 .7 1.5s-.2 1.1-.7 1.5l-3.1 3.2z"/><path d="m7.536 11.52 4.009-3.91.768.788-4.01 3.91z"/></svg>