<svg width="20" height="20"><path d="M18.5 6.87c0-3.95-2.59-5.11-2.59-5.11-1.31-.6-3.55-.85-5.88-.87h-.06c-2.33.02-4.57.27-5.88.87 0 0-2.59 1.16-2.59 5.11 0 .91-.02 1.99.01 3.14.09 3.87.71 7.68 4.28 8.62 1.65.44 3.06.53 4.2.47 2.07-.11 3.23-.74 3.23-.74l-.07-1.5s-1.48.47-3.14.41c-1.64-.06-3.38-.18-3.64-2.2-.02-.18-.04-.37-.04-.57 0 0 1.61.39 3.66.49 1.25.06 2.42-.07 3.61-.22 2.28-.27 4.27-1.68 4.52-2.97.39-2.02.36-4.94.36-4.94zm-3.05 5.09h-1.9V7.31c0-.98-.41-1.48-1.24-1.48-.91 0-1.37.59-1.37 1.76v2.54H9.05V7.59c0-1.17-.46-1.76-1.37-1.76-.82 0-1.24.5-1.24 1.48v4.65h-1.9V7.17c0-.98.25-1.76.75-2.33.52-.58 1.19-.87 2.03-.87.97 0 1.71.37 2.19 1.12l.47.79.47-.79c.49-.75 1.22-1.12 2.19-1.12.84 0 1.51.29 2.03.87.5.58.75 1.35.75 2.33v4.79z"/></svg>