<svg xmlns="http://www.w3.org/2000/svg" viewBox="0 0 20 20" style="enable-background:new 0 0 20 20" xml:space="preserve"><path d="M10 19.5C4.7 19.5.5 15.2.5 10 .5 4.7 4.8.5 10 .5c5.3 0 9.5 4.3 9.5 9.5 0 5.3-4.2 9.5-9.5 9.5zm0-18c-4.7 0-8.5 3.8-8.5 8.5s3.8 8.5 8.5 8.5 8.5-3.8 8.5-8.5-3.8-8.5-8.5-8.5z"/><circle cx="10" cy="14.2" r="1.1"/><path d="M10.6 11.6H9.4v-.3c.1-.9.4-1.5 1-2.1l.5-.5c.5-.4.8-.7.8-1.2s-.2-.9-.5-1.2c-.9-.8-2.9-.5-2.9 1.3H7.1c0-1.9 1.5-2.9 2.9-2.9s2.8 1 2.8 2.8c0 1-.7 1.6-1.2 2.1l-.4.4c-.4.4-.6.8-.6 1.3v.3z"/></svg>