<svg xmlns="http://www.w3.org/2000/svg" viewBox="0 0 20 20" style="enable-background:new 0 0 20 20" xml:space="preserve"><path d="M6.1 6.2C4.7 6.2 3.5 5 3.5 3.5 3.5 2 4.7.9 6.1.9c1.4 0 2.6 1.2 2.6 2.6 0 1.5-1.2 2.7-2.6 2.7zm0-4.3c-.9 0-1.6.7-1.6 1.6 0 .9.7 1.7 1.6 1.7.9 0 1.6-.7 1.6-1.7 0-.9-.7-1.6-1.6-1.6zM6.1 18.2c-1.4 0-2.6-1.2-2.6-2.7 0-1.5 1.2-2.6 2.6-2.6 1.4 0 2.6 1.2 2.6 2.6 0 1.5-1.2 2.7-2.6 2.7zm0-4.3c-.9 0-1.6.7-1.6 1.6 0 .9.7 1.7 1.6 1.7.9 0 1.6-.7 1.6-1.7 0-.9-.7-1.6-1.6-1.6zM13.2 12.2c-1.5 0-2.7-1.2-2.7-2.7 0-1.5 1.2-2.6 2.7-2.6 1.5 0 2.6 1.2 2.6 2.6 0 1.5-1.2 2.7-2.6 2.7zm0-4.3c-.9 0-1.7.7-1.7 1.6 0 .9.7 1.7 1.7 1.7.9 0 1.6-.7 1.6-1.7 0-.9-.7-1.6-1.6-1.6z"/><path d="M1 3h3v1H1zM10 3h8v1h-8zM1 9h8v1H1zM15 9h3v1h-3zM1 15h3v1H1zM10 15h8v1h-8z"/></svg>