<svg xmlns="http://www.w3.org/2000/svg" viewBox="0 0 20 20" style="enable-background:new 0 0 20 20" xml:space="preserve"><path d="m6.036 11.184.464-.998 7.073 3.287-.463.998zM6.238 8.315l6.966-3.281.468.995L6.706 9.31z"/><path d="M15.5 7.4c-1.6 0-2.8-1.3-2.8-2.8 0-1.6 1.3-2.9 2.8-2.9s2.8 1.3 2.8 2.9c0 1.6-1.2 2.8-2.8 2.8zm0-4.6c-1 0-1.8.8-1.8 1.8s.8 1.8 1.8 1.8 1.8-.8 1.8-1.8c-.1-1-.8-1.8-1.8-1.8zM15.5 17.6c-1.6 0-2.8-1.3-2.8-2.8S14 12 15.5 12s2.8 1.3 2.8 2.8-1.2 2.8-2.8 2.8zm0-4.6c-1 0-1.8.8-1.8 1.8s.8 1.8 1.8 1.8 1.8-.8 1.8-1.8-.8-1.8-1.8-1.8zM4.5 12.6c-1.6 0-2.8-1.3-2.8-2.8S2.9 7 4.5 7s2.8 1.3 2.8 2.8-1.2 2.8-2.8 2.8zm0-4.6c-1 0-1.8.8-1.8 1.8s.8 1.8 1.8 1.8 1.8-.8 1.8-1.8S5.5 8 4.5 8z"/></svg>