<svg xmlns="http://www.w3.org/2000/svg" viewBox="0 0 20 20" style="enable-background:new 0 0 20 20" xml:space="preserve"><path d="M7.7 12.6c-2.2 0-4-1.8-4-4s1.8-4 4-4 4 1.8 4 4c.1 2.2-1.8 4-4 4zm0-7c-1.6 0-3 1.3-3 3s1.3 2.9 3 2.9 3-1.3 3-2.9-1.4-3-3-3z"/><path d="M13.8 18.4c-.6-3.3-3.2-5.7-6.2-5.7-2.9 0-5.4 2.3-6.1 5.6l-1-.3c.8-3.8 3.7-6.4 7.1-6.4 3.5 0 6.6 2.8 7.2 6.7l-1 .1zM18.7 14.2c-.4-2.7-2.6-4.7-5.1-4.7V8.4c.8 0 1.6-.4 2-1.2.4-.7.5-1.5.2-2.3-.3-.7-1-1.2-1.9-1.4-.8-.1-1.6.2-2.1.8l-.8-.7c.8-.9 1.9-1.3 3.1-1.1 1.2.2 2.2.9 2.7 2s.4 2.3-.2 3.3c-.2.4-.5.7-.9 1 2.1.8 3.7 2.8 4.1 5.3l-1.1.1z"/></svg>