<svg xmlns="http://www.w3.org/2000/svg" viewBox="0 0 20 20" style="enable-background:new 0 0 20 20" xml:space="preserve"><path d="M1 10h18v1H1zM2.4 15h15.3v1H2.4zM2.4 5h15.2v1H2.4z"/><path d="M10.2 20h-.4l-.1-.1c-2.9-2.3-4.6-5.7-4.6-9.3 0-3.6 1.7-6.9 4.6-9.3l.1-.1h.3l.1.1c2.9 2.3 4.6 5.7 4.6 9.3s-1.7 6.9-4.6 9.3v.1zM10 2.3c-2.5 2.1-3.9 5.1-3.9 8.2 0 3.1 1.4 6.1 3.9 8.2 2.5-2.1 3.9-5.1 3.9-8.2 0-3.1-1.4-6-3.9-8.2z"/><path d="M10 20C4.8 20 .5 15.7.5 10.5S4.8 1 10 1s9.5 4.3 9.5 9.5S15.2 20 10 20zm0-18c-4.7 0-8.5 3.8-8.5 8.5S5.3 19 10 19s8.5-3.8 8.5-8.5S14.7 2 10 2z"/></svg>