<svg width="20" height="20"><path d="M16.15 5.48c-1.37 0-2.45.61-3.11 1.54-.66-.93-1.74-1.54-3.11-1.54-1.75 0-3.03 1-3.57 2.41V5.67H4.35v4.45c0 .85-.31 1.35-1.18 1.35s-1.18-.5-1.18-1.35V5.67H0v4.86c0 .7.17 1.33.53 1.82.34.49.88.85 1.6 1v3.16h2.1v-3.16c1.28-.28 1.96-1.17 2.1-2.35.52 1.44 1.81 2.48 3.59 2.48 1.37 0 2.45-.61 3.11-1.54.66.93 1.74 1.54 3.11 1.54 2.37 0 3.85-1.82 3.85-4s-1.49-4-3.85-4zm-6.22 5.99c-1.11 0-1.85-.72-1.85-1.99s.74-1.99 1.85-1.99 1.85.72 1.85 1.99-.74 1.99-1.85 1.99zm6.22 0c-1.11 0-1.85-.72-1.85-1.99s.74-1.99 1.85-1.99S18 8.21 18 9.48s-.74 1.99-1.85 1.99z"/></svg>